<svg width="46" height="46" viewBox="0 0 46 46" fill="none" xmlns="http://www.w3.org/2000/svg">
<path d="M13.4167 32.5833H26.8333V28.75H13.4167V32.5833ZM13.4167 24.9167H32.5833V21.0833H13.4167V24.9167ZM13.4167 17.25H32.5833V13.4167H13.4167V17.25ZM9.58333 40.25C8.52917 40.25 7.62674 39.8747 6.87604 39.124C6.12535 38.3733 5.75 37.4708 5.75 36.4167V9.58333C5.75 8.52917 6.12535 7.62674 6.87604 6.87604C7.62674 6.12535 8.52917 5.75 9.58333 5.75H36.4167C37.4708 5.75 38.3733 6.12535 39.124 6.87604C39.8747 7.62674 40.25 8.52917 40.25 9.58333V36.4167C40.25 37.4708 39.8747 38.3733 39.124 39.124C38.3733 39.8747 37.4708 40.25 36.4167 40.25H9.58333ZM9.58333 36.4167H36.4167V9.58333H9.58333V36.4167Z" fill="white"/>
</svg>
