<svg width="20" height="20" viewBox="0 0 20 20" fill="none" xmlns="http://www.w3.org/2000/svg">
<path d="M1.6665 15.8332V10.8332C1.6665 10.4582 1.74289 10.1179 1.89567 9.81234C2.04845 9.50678 2.24984 9.23595 2.49984 8.99984V6.6665C2.49984 5.97206 2.74289 5.38178 3.229 4.89567C3.71511 4.40956 4.30539 4.1665 4.99984 4.1665H8.33317C8.65261 4.1665 8.95123 4.22553 9.229 4.34359C9.50678 4.46164 9.76373 4.62484 9.99984 4.83317C10.2359 4.62484 10.4929 4.46164 10.7707 4.34359C11.0484 4.22553 11.3471 4.1665 11.6665 4.1665H14.9998C15.6943 4.1665 16.2846 4.40956 16.7707 4.89567C17.2568 5.38178 17.4998 5.97206 17.4998 6.6665V8.99984C17.7498 9.23595 17.9512 9.50678 18.104 9.81234C18.2568 10.1179 18.3332 10.4582 18.3332 10.8332V15.8332H16.6665V14.1665H3.33317V15.8332H1.6665ZM10.8332 8.33317H15.8332V6.6665C15.8332 6.43039 15.7533 6.23248 15.5936 6.07275C15.4339 5.91303 15.2359 5.83317 14.9998 5.83317H11.6665C11.4304 5.83317 11.2325 5.91303 11.0728 6.07275C10.913 6.23248 10.8332 6.43039 10.8332 6.6665V8.33317ZM4.1665 8.33317H9.1665V6.6665C9.1665 6.43039 9.08664 6.23248 8.92692 6.07275C8.7672 5.91303 8.56928 5.83317 8.33317 5.83317H4.99984C4.76373 5.83317 4.56581 5.91303 4.40609 6.07275C4.24636 6.23248 4.1665 6.43039 4.1665 6.6665V8.33317ZM3.33317 12.4998H16.6665V10.8332C16.6665 10.5971 16.5866 10.3991 16.4269 10.2394C16.2672 10.0797 16.0693 9.99984 15.8332 9.99984H4.1665C3.93039 9.99984 3.73248 10.0797 3.57275 10.2394C3.41303 10.3991 3.33317 10.5971 3.33317 10.8332V12.4998Z" fill="#0080FF"/>
</svg>
