<svg width="20" height="20" viewBox="0 0 20 20" fill="none" xmlns="http://www.w3.org/2000/svg">
<path d="M4.16667 18.3337C3.70833 18.3337 3.31597 18.1705 2.98958 17.8441C2.66319 17.5177 2.5 17.1253 2.5 16.667V5.00033C2.5 4.54199 2.66319 4.14963 2.98958 3.82324C3.31597 3.49685 3.70833 3.33366 4.16667 3.33366H5V1.66699H6.66667V3.33366H13.3333V1.66699H15V3.33366H15.8333C16.2917 3.33366 16.684 3.49685 17.0104 3.82324C17.3368 4.14963 17.5 4.54199 17.5 5.00033V16.667C17.5 17.1253 17.3368 17.5177 17.0104 17.8441C16.684 18.1705 16.2917 18.3337 15.8333 18.3337H4.16667ZM4.16667 16.667H15.8333V8.33366H4.16667V16.667ZM4.16667 6.66699H15.8333V5.00033H4.16667V6.66699Z" fill="#0080FF"/>
</svg>
