<svg width="70" height="70" viewBox="0 0 70 70" fill="none" xmlns="http://www.w3.org/2000/svg">
<path d="M30.9168 48.4173L51.4793 27.8548L47.396 23.7715L30.9168 40.2506L22.6043 31.9382L18.521 36.0215L30.9168 48.4173ZM35.0002 64.1673C30.9654 64.1673 27.1738 63.4017 23.6252 61.8704C20.0766 60.3392 16.9897 58.2611 14.3647 55.6361C11.7397 53.0111 9.66162 49.9243 8.13037 46.3756C6.59912 42.827 5.8335 39.0354 5.8335 35.0007C5.8335 30.9659 6.59912 27.1743 8.13037 23.6257C9.66162 20.077 11.7397 16.9902 14.3647 14.3652C16.9897 11.7402 20.0766 9.66211 23.6252 8.13086C27.1738 6.59961 30.9654 5.83398 35.0002 5.83398C39.0349 5.83398 42.8265 6.59961 46.3752 8.13086C49.9238 9.66211 53.0106 11.7402 55.6356 14.3652C58.2606 16.9902 60.3387 20.077 61.87 23.6257C63.4012 27.1743 64.1668 30.9659 64.1668 35.0007C64.1668 39.0354 63.4012 42.827 61.87 46.3756C60.3387 49.9243 58.2606 53.0111 55.6356 55.6361C53.0106 58.2611 49.9238 60.3392 46.3752 61.8704C42.8265 63.4017 39.0349 64.1673 35.0002 64.1673ZM35.0002 58.334C41.514 58.334 47.0314 56.0736 51.5522 51.5527C56.0731 47.0319 58.3335 41.5145 58.3335 35.0007C58.3335 28.4868 56.0731 22.9694 51.5522 18.4486C47.0314 13.9277 41.514 11.6673 35.0002 11.6673C28.4863 11.6673 22.9689 13.9277 18.4481 18.4486C13.9272 22.9694 11.6668 28.4868 11.6668 35.0007C11.6668 41.5145 13.9272 47.0319 18.4481 51.5527C22.9689 56.0736 28.4863 58.334 35.0002 58.334Z" fill="#13BF10"/>
</svg>
