<svg width="46" height="46" viewBox="0 0 46 46" fill="none" xmlns="http://www.w3.org/2000/svg">
<path d="M5.75 44.0832V30.6665C5.75 28.0151 6.68437 25.755 8.55312 23.8863C10.4219 22.0175 12.6819 21.0832 15.3333 21.0832H17.25V5.74984C17.25 4.69567 17.6253 3.79324 18.376 3.04255C19.1267 2.29185 20.0292 1.9165 21.0833 1.9165H24.9167C25.9708 1.9165 26.8733 2.29185 27.624 3.04255C28.3747 3.79324 28.75 4.69567 28.75 5.74984V21.0832H30.6667C33.3181 21.0832 35.5781 22.0175 37.4469 23.8863C39.3156 25.755 40.25 28.0151 40.25 30.6665V44.0832H5.75ZM9.58333 40.2498H13.4167V34.4998C13.4167 33.9568 13.6003 33.5016 13.9677 33.1342C14.3351 32.7669 14.7903 32.5832 15.3333 32.5832C15.8764 32.5832 16.3316 32.7669 16.699 33.1342C17.0663 33.5016 17.25 33.9568 17.25 34.4998V40.2498H21.0833V34.4998C21.0833 33.9568 21.267 33.5016 21.6344 33.1342C22.0017 32.7669 22.4569 32.5832 23 32.5832C23.5431 32.5832 23.9983 32.7669 24.3656 33.1342C24.733 33.5016 24.9167 33.9568 24.9167 34.4998V40.2498H28.75V34.4998C28.75 33.9568 28.9337 33.5016 29.301 33.1342C29.6684 32.7669 30.1236 32.5832 30.6667 32.5832C31.2097 32.5832 31.6649 32.7669 32.0323 33.1342C32.3997 33.5016 32.5833 33.9568 32.5833 34.4998V40.2498H36.4167V30.6665C36.4167 29.0693 35.8576 27.7116 34.7396 26.5936C33.6215 25.4755 32.2639 24.9165 30.6667 24.9165H15.3333C13.7361 24.9165 12.3785 25.4755 11.2604 26.5936C10.1424 27.7116 9.58333 29.0693 9.58333 30.6665V40.2498ZM24.9167 21.0832V5.74984H21.0833V21.0832H24.9167Z" fill="white"/>
</svg>
