<svg width="20" height="20" viewBox="0 0 20 20" fill="none" xmlns="http://www.w3.org/2000/svg">
<path d="M9.99984 18.3332C8.52762 18.3332 7.32623 18.1005 6.39567 17.6353C5.46512 17.17 4.99984 16.5693 4.99984 15.8332C4.99984 15.4998 5.10053 15.1908 5.30192 14.9061C5.50331 14.6214 5.78456 14.3748 6.14567 14.1665L7.45817 15.3957C7.33317 15.4512 7.19775 15.5137 7.05192 15.5832C6.90609 15.6526 6.7915 15.7359 6.70817 15.8332C6.88873 16.0554 7.30539 16.2498 7.95817 16.4165C8.61095 16.5832 9.2915 16.6665 9.99984 16.6665C10.7082 16.6665 11.3922 16.5832 12.0519 16.4165C12.7116 16.2498 13.1318 16.0554 13.3123 15.8332C13.2151 15.7221 13.0901 15.6318 12.9373 15.5623C12.7846 15.4929 12.6387 15.4304 12.4998 15.3748L13.7915 14.1248C14.1804 14.3471 14.479 14.6005 14.6873 14.8853C14.8957 15.17 14.9998 15.4859 14.9998 15.8332C14.9998 16.5693 14.5346 17.17 13.604 17.6353C12.6734 18.1005 11.4721 18.3332 9.99984 18.3332ZM10.0207 13.7498C11.3957 12.7359 12.4304 11.7186 13.1248 10.6978C13.8193 9.67692 14.1665 8.65261 14.1665 7.62484C14.1665 6.20817 13.7151 5.13873 12.8123 4.4165C11.9096 3.69428 10.9721 3.33317 9.99984 3.33317C9.02762 3.33317 8.09012 3.69428 7.18734 4.4165C6.28456 5.13873 5.83317 6.20817 5.83317 7.62484C5.83317 8.55539 6.17345 9.52414 6.854 10.5311C7.53456 11.538 8.59012 12.6109 10.0207 13.7498ZM9.99984 15.8332C8.0415 14.3887 6.5797 12.9859 5.61442 11.6248C4.64914 10.2637 4.1665 8.93039 4.1665 7.62484C4.1665 6.63873 4.34359 5.77414 4.69775 5.03109C5.05192 4.28803 5.50678 3.6665 6.06234 3.1665C6.61789 2.6665 7.24289 2.2915 7.93734 2.0415C8.63178 1.7915 9.31928 1.6665 9.99984 1.6665C10.6804 1.6665 11.3679 1.7915 12.0623 2.0415C12.7568 2.2915 13.3818 2.6665 13.9373 3.1665C14.4929 3.6665 14.9478 4.28803 15.3019 5.03109C15.6561 5.77414 15.8332 6.63873 15.8332 7.62484C15.8332 8.93039 15.3505 10.2637 14.3853 11.6248C13.42 12.9859 11.9582 14.3887 9.99984 15.8332ZM9.99984 9.1665C10.4582 9.1665 10.8505 9.00331 11.1769 8.67692C11.5033 8.35053 11.6665 7.95817 11.6665 7.49984C11.6665 7.0415 11.5033 6.64914 11.1769 6.32275C10.8505 5.99636 10.4582 5.83317 9.99984 5.83317C9.5415 5.83317 9.14914 5.99636 8.82275 6.32275C8.49637 6.64914 8.33317 7.0415 8.33317 7.49984C8.33317 7.95817 8.49637 8.35053 8.82275 8.67692C9.14914 9.00331 9.5415 9.1665 9.99984 9.1665Z" fill="#0080FF"/>
</svg>
