<svg width="24" height="24" viewBox="0 0 24 24" fill="none" xmlns="http://www.w3.org/2000/svg">
<path d="M9 13C8.71667 13 8.47917 12.9042 8.2875 12.7125C8.09583 12.5208 8 12.2833 8 12C8 11.7167 8.09583 11.4792 8.2875 11.2875C8.47917 11.0958 8.71667 11 9 11C9.28333 11 9.52083 11.0958 9.7125 11.2875C9.90417 11.4792 10 11.7167 10 12C10 12.2833 9.90417 12.5208 9.7125 12.7125C9.52083 12.9042 9.28333 13 9 13ZM15 13C14.7167 13 14.4792 12.9042 14.2875 12.7125C14.0958 12.5208 14 12.2833 14 12C14 11.7167 14.0958 11.4792 14.2875 11.2875C14.4792 11.0958 14.7167 11 15 11C15.2833 11 15.5208 11.0958 15.7125 11.2875C15.9042 11.4792 16 11.7167 16 12C16 12.2833 15.9042 12.5208 15.7125 12.7125C15.5208 12.9042 15.2833 13 15 13ZM3 21V19H4V5C4 4.45 4.19583 3.97917 4.5875 3.5875C4.97917 3.19583 5.45 3 6 3H18C18.55 3 19.0208 3.19583 19.4125 3.5875C19.8042 3.97917 20 4.45 20 5V19H21V21H3ZM6 19H11V5H6V19ZM13 19H18V5H13V19Z" fill="#0080FF"/>
</svg>
