<svg width="20" height="20" viewBox="0 0 20 20" fill="none" xmlns="http://www.w3.org/2000/svg">
<path d="M8.33317 18.3332V12.4998H6.6665V7.49984C6.6665 7.0415 6.8297 6.64914 7.15609 6.32275C7.48248 5.99636 7.87484 5.83317 8.33317 5.83317H11.6665C12.1248 5.83317 12.5172 5.99636 12.8436 6.32275C13.17 6.64914 13.3332 7.0415 13.3332 7.49984V12.4998H11.6665V18.3332H8.33317ZM9.99984 4.99984C9.5415 4.99984 9.14914 4.83664 8.82275 4.51025C8.49636 4.18386 8.33317 3.7915 8.33317 3.33317C8.33317 2.87484 8.49636 2.48248 8.82275 2.15609C9.14914 1.8297 9.5415 1.6665 9.99984 1.6665C10.4582 1.6665 10.8505 1.8297 11.1769 2.15609C11.5033 2.48248 11.6665 2.87484 11.6665 3.33317C11.6665 3.7915 11.5033 4.18386 11.1769 4.51025C10.8505 4.83664 10.4582 4.99984 9.99984 4.99984Z" fill="#0080FF"/>
</svg>
