<svg width="40" height="40" viewBox="0 0 40 40" fill="none" xmlns="http://www.w3.org/2000/svg">
<path fill-rule="evenodd" clip-rule="evenodd" d="M20 33.75C27.5939 33.75 33.75 27.5939 33.75 20C33.75 12.4061 27.5939 6.25 20 6.25C12.4061 6.25 6.25 12.4061 6.25 20C6.25 27.5939 12.4061 33.75 20 33.75ZM21.4782 14.7956C21.1691 14.4864 20.7498 14.3127 20.3125 14.3127C19.8752 14.3127 19.4559 14.4864 19.1468 14.7956C18.8376 15.1048 18.6639 15.5241 18.6639 15.9613C18.6639 16.3985 18.8376 16.8179 19.1468 17.127C19.4559 17.4362 19.8752 17.6099 20.3125 17.6099C20.7498 17.6099 21.1691 17.4362 21.4782 17.127C21.7874 16.8179 21.9611 16.3985 21.9611 15.9613C21.9611 15.5241 21.7874 15.1048 21.4782 14.7956ZM24.2871 15.9613C24.2871 18.1519 22.5076 19.9359 20.3125 19.9359C18.1219 19.9359 16.3379 18.1519 16.3379 15.9613C16.3379 13.7707 18.1219 11.9867 20.3125 11.9867C22.5031 11.9867 24.2871 13.7707 24.2871 15.9613ZM24.2239 22.2349C23.5148 22.6782 22.7361 22.9988 21.9204 23.1834L21.9069 23.1788L24.1336 25.4055C24.2418 25.5138 24.3277 25.6423 24.3864 25.7837C24.445 25.9251 24.4751 26.0767 24.4751 26.2298C24.4751 26.3829 24.445 26.5345 24.3864 26.6759C24.3277 26.8174 24.2418 26.9459 24.1336 27.0541C24.0253 27.1624 23.8968 27.2483 23.7554 27.3069C23.6139 27.3655 23.4624 27.3957 23.3092 27.3957C23.1562 27.3957 23.0046 27.3655 22.8631 27.3069C22.7217 27.2483 22.5932 27.1624 22.485 27.0541L20.2989 24.8681L18.1129 27.0586C17.8943 27.2772 17.5978 27.4 17.2886 27.4C16.9795 27.4 16.683 27.2772 16.4644 27.0586C16.2458 26.84 16.1229 26.5435 16.1229 26.2343C16.1229 25.9251 16.2458 25.6286 16.4644 25.4101L18.6775 23.1834C17.8645 23.0027 17.0922 22.6865 16.374 22.2349C16.2448 22.153 16.1328 22.0465 16.0447 21.9214C15.9565 21.7963 15.8939 21.6551 15.8603 21.5057C15.8268 21.3564 15.823 21.202 15.8491 21.0512C15.8753 20.9004 15.9308 20.7563 16.0127 20.6269C16.0946 20.4976 16.2011 20.3858 16.3262 20.2976C16.4513 20.2094 16.5925 20.1468 16.7418 20.1132C16.8911 20.0797 17.0456 20.0759 17.1964 20.1021C17.3471 20.1282 17.4913 20.1837 17.6206 20.2656C18.4238 20.7676 19.3518 21.0337 20.2989 21.0337C21.2461 21.0337 22.1741 20.7676 22.9773 20.2656C23.1066 20.1837 23.2508 20.1282 23.4016 20.1021C23.5523 20.0759 23.7068 20.0797 23.8561 20.1132C24.0054 20.1468 24.1466 20.2094 24.2718 20.2976C24.3968 20.3858 24.5034 20.4976 24.5852 20.6269C24.6671 20.7563 24.7226 20.9004 24.7488 21.0512C24.7749 21.202 24.7711 21.3564 24.7376 21.5057C24.704 21.6551 24.6414 21.7963 24.5532 21.9214C24.4651 22.0465 24.3532 22.153 24.2239 22.2349Z" fill="white"/>
</svg>
