<svg width="28" height="28" viewBox="0 0 28 28" fill="none" xmlns="http://www.w3.org/2000/svg">
<path fill-rule="evenodd" clip-rule="evenodd" d="M14 27.75C21.5939 27.75 27.75 21.5939 27.75 14C27.75 6.40606 21.5939 0.25 14 0.25C6.40606 0.25 0.25 6.40606 0.25 14C0.25 21.5939 6.40606 27.75 14 27.75ZM15.4782 8.79563C15.1691 8.48644 14.7498 8.31275 14.3125 8.31275C13.8752 8.31275 13.4559 8.48644 13.1468 8.79563C12.8376 9.10475 12.6639 9.52406 12.6639 9.96131C12.6639 10.3985 12.8376 10.8179 13.1468 11.127C13.4559 11.4362 13.8752 11.6099 14.3125 11.6099C14.7498 11.6099 15.1691 11.4362 15.4782 11.127C15.7874 10.8179 15.9611 10.3985 15.9611 9.96131C15.9611 9.52406 15.7874 9.10475 15.4782 8.79563ZM18.2871 9.96131C18.2871 12.1519 16.5076 13.9359 14.3125 13.9359C12.1219 13.9359 10.3379 12.1519 10.3379 9.96131C10.3379 7.77075 12.1219 5.98669 14.3125 5.98669C16.5031 5.98669 18.2871 7.77075 18.2871 9.96131ZM18.2239 16.2349C17.5148 16.6782 16.7361 16.9988 15.9204 17.1834L15.9069 17.1788L18.1336 19.4055C18.2418 19.5138 18.3277 19.6423 18.3864 19.7837C18.445 19.9251 18.4751 20.0767 18.4751 20.2298C18.4751 20.3829 18.445 20.5345 18.3864 20.6759C18.3277 20.8174 18.2418 20.9459 18.1336 21.0541C18.0253 21.1624 17.8968 21.2483 17.7554 21.3069C17.6139 21.3655 17.4624 21.3957 17.3092 21.3957C17.1562 21.3957 17.0046 21.3655 16.8631 21.3069C16.7217 21.2483 16.5932 21.1624 16.485 21.0541L14.2989 18.8681L12.1129 21.0586C11.8943 21.2772 11.5978 21.4 11.2886 21.4C10.9795 21.4 10.683 21.2772 10.4644 21.0586C10.2458 20.84 10.1229 20.5435 10.1229 20.2343C10.1229 19.9251 10.2458 19.6286 10.4644 19.4101L12.6775 17.1834C11.8645 17.0027 11.0922 16.6865 10.374 16.2349C10.2448 16.153 10.1328 16.0465 10.0447 15.9214C9.9565 15.7963 9.89387 15.6551 9.86031 15.5057C9.82681 15.3564 9.823 15.202 9.84912 15.0512C9.87525 14.9004 9.93081 14.7563 10.0127 14.6269C10.0946 14.4976 10.2011 14.3858 10.3262 14.2976C10.4513 14.2094 10.5925 14.1468 10.7418 14.1132C10.8911 14.0797 11.0456 14.0759 11.1964 14.1021C11.3471 14.1282 11.4913 14.1837 11.6206 14.2656C12.4238 14.7676 13.3518 15.0337 14.2989 15.0337C15.2461 15.0337 16.1741 14.7676 16.9773 14.2656C17.1066 14.1837 17.2508 14.1282 17.4016 14.1021C17.5523 14.0759 17.7068 14.0797 17.8561 14.1132C18.0054 14.1468 18.1466 14.2094 18.2718 14.2976C18.3968 14.3858 18.5034 14.4976 18.5852 14.6269C18.6671 14.7563 18.7226 14.9004 18.7488 15.0512C18.7749 15.202 18.7711 15.3564 18.7376 15.5057C18.704 15.6551 18.6414 15.7963 18.5532 15.9214C18.4651 16.0465 18.3532 16.153 18.2239 16.2349Z" fill="white"/>
</svg>
