<svg width="20" height="20" viewBox="0 0 20 20" fill="none" xmlns="http://www.w3.org/2000/svg">
<path d="M11.6668 10.833C10.9724 10.833 10.3821 10.59 9.896 10.1038C9.40989 9.61773 9.16683 9.02745 9.16683 8.33301C9.16683 7.63856 9.40989 7.04829 9.896 6.56217C10.3821 6.07606 10.9724 5.83301 11.6668 5.83301C12.3613 5.83301 12.9516 6.07606 13.4377 6.56217C13.9238 7.04829 14.1668 7.63856 14.1668 8.33301C14.1668 9.02745 13.9238 9.61773 13.4377 10.1038C12.9516 10.59 12.3613 10.833 11.6668 10.833ZM5.8335 13.333C5.37516 13.333 4.9828 13.1698 4.65641 12.8434C4.33002 12.517 4.16683 12.1247 4.16683 11.6663V4.99967C4.16683 4.54134 4.33002 4.14898 4.65641 3.82259C4.9828 3.4962 5.37516 3.33301 5.8335 3.33301H17.5002C17.9585 3.33301 18.3509 3.4962 18.6772 3.82259C19.0036 4.14898 19.1668 4.54134 19.1668 4.99967V11.6663C19.1668 12.1247 19.0036 12.517 18.6772 12.8434C18.3509 13.1698 17.9585 13.333 17.5002 13.333H5.8335ZM7.50016 11.6663H15.8335C15.8335 11.208 15.9967 10.8156 16.3231 10.4893C16.6495 10.1629 17.0418 9.99967 17.5002 9.99967V6.66634C17.0418 6.66634 16.6495 6.50315 16.3231 6.17676C15.9967 5.85037 15.8335 5.45801 15.8335 4.99967H7.50016C7.50016 5.45801 7.33697 5.85037 7.01058 6.17676C6.68419 6.50315 6.29183 6.66634 5.8335 6.66634V9.99967C6.29183 9.99967 6.68419 10.1629 7.01058 10.4893C7.33697 10.8156 7.50016 11.208 7.50016 11.6663ZM16.6668 16.6663H2.50016C2.04183 16.6663 1.64947 16.5031 1.32308 16.1768C0.996691 15.8504 0.833496 15.458 0.833496 14.9997V5.83301H2.50016V14.9997H16.6668V16.6663Z" fill="#0080FF"/>
</svg>
