<svg width="20" height="20" viewBox="0 0 20 20" fill="none" xmlns="http://www.w3.org/2000/svg">
<path d="M12.7498 13.917L13.9165 12.7503L10.8332 9.66699V5.83366H9.1665V10.3337L12.7498 13.917ZM9.99984 18.3337C8.84706 18.3337 7.76373 18.1149 6.74984 17.6774C5.73595 17.2399 4.854 16.6462 4.104 15.8962C3.354 15.1462 2.76025 14.2642 2.32275 13.2503C1.88525 12.2364 1.6665 11.1531 1.6665 10.0003C1.6665 8.84755 1.88525 7.76421 2.32275 6.75033C2.76025 5.73644 3.354 4.85449 4.104 4.10449C4.854 3.35449 5.73595 2.76074 6.74984 2.32324C7.76373 1.88574 8.84706 1.66699 9.99984 1.66699C11.1526 1.66699 12.2359 1.88574 13.2498 2.32324C14.2637 2.76074 15.1457 3.35449 15.8957 4.10449C16.6457 4.85449 17.2394 5.73644 17.6769 6.75033C18.1144 7.76421 18.3332 8.84755 18.3332 10.0003C18.3332 11.1531 18.1144 12.2364 17.6769 13.2503C17.2394 14.2642 16.6457 15.1462 15.8957 15.8962C15.1457 16.6462 14.2637 17.2399 13.2498 17.6774C12.2359 18.1149 11.1526 18.3337 9.99984 18.3337ZM9.99984 16.667C11.8471 16.667 13.42 16.0177 14.7186 14.7191C16.0172 13.4205 16.6665 11.8475 16.6665 10.0003C16.6665 8.1531 16.0172 6.58019 14.7186 5.28158C13.42 3.98296 11.8471 3.33366 9.99984 3.33366C8.15261 3.33366 6.5797 3.98296 5.28109 5.28158C3.98248 6.58019 3.33317 8.1531 3.33317 10.0003C3.33317 11.8475 3.98248 13.4205 5.28109 14.7191C6.5797 16.0177 8.15261 16.667 9.99984 16.667Z" fill="#0080FF"/>
</svg>
