<svg width="40" height="40" viewBox="0 0 40 40" fill="none" xmlns="http://www.w3.org/2000/svg">
<path d="M20 6.25C12.4042 6.25 6.25 12.4042 6.25 20C6.25 27.5957 12.4042 33.75 20 33.75C27.5958 33.75 33.75 27.5957 33.75 20C33.75 12.4042 27.5958 6.25 20 6.25ZM26.753 15.6699L24.4965 26.3039C24.3301 27.058 23.881 27.2409 23.2546 26.8861L19.8171 24.3523L18.1593 25.9491C17.9763 26.132 17.8211 26.2873 17.4662 26.2873L17.7102 22.7888L24.0806 17.0338C24.3579 16.7898 24.0197 16.6512 23.6537 16.8952L15.7808 21.8518L12.3876 20.7928C11.6502 20.56 11.6336 20.0554 12.5428 19.7006L25.7994 14.5887C26.4148 14.3669 26.9526 14.7384 26.753 15.6699Z" fill="white"/>
</svg>
