<svg width="29" height="29" viewBox="0 0 29 29" fill="none" xmlns="http://www.w3.org/2000/svg">
<path d="M14.6875 0.9375C7.09172 0.9375 0.9375 7.09172 0.9375 14.6875C0.9375 22.2832 7.09172 28.4375 14.6875 28.4375C22.2833 28.4375 28.4375 22.2832 28.4375 14.6875C28.4375 7.09172 22.2833 0.9375 14.6875 0.9375ZM21.4405 10.3574L19.184 20.9914C19.0176 21.7455 18.5685 21.9284 17.9421 21.5736L14.5046 19.0398L12.8468 20.6366C12.6638 20.8195 12.5086 20.9748 12.1537 20.9748L12.3977 17.4763L18.7681 11.7213C19.0454 11.4773 18.7072 11.3387 18.3412 11.5827L10.4683 16.5393L7.07508 15.4803C6.33771 15.2475 6.32107 14.7429 7.23034 14.3881L20.4869 9.27618C21.1023 9.05443 21.6401 9.42589 21.4405 10.3574Z" fill="white"/>
</svg>
