<svg width="28" height="28" viewBox="0 0 28 28" fill="none" xmlns="http://www.w3.org/2000/svg">
<path fill-rule="evenodd" clip-rule="evenodd" d="M14 27.75C21.5939 27.75 27.75 21.5939 27.75 14C27.75 6.40606 21.5939 0.25 14 0.25C6.40606 0.25 0.25 6.40606 0.25 14C0.25 21.5939 6.40606 27.75 14 27.75ZM14.2881 5.88606C17.8283 5.90131 19.4161 7.0395 19.8084 7.3965C21.1121 8.51631 21.8349 10.9941 21.3468 14.9181C20.9194 18.3789 18.4777 18.9929 17.6561 19.1995C17.5751 19.2199 17.5098 19.2363 17.4637 19.2511C17.2413 19.3212 15.2921 19.8034 12.7528 19.5928C12.4717 19.9133 12.101 20.3343 11.8322 20.6211C11.7508 20.7076 11.6746 20.7931 11.6017 20.8748C11.2349 21.2861 10.9533 21.6018 10.5255 21.4694C10.0992 21.3412 10.1239 20.7035 10.1239 20.7035L10.127 19.129H10.1239C6.41381 18.0976 6.46631 14.2956 6.50956 12.2665C6.55281 10.2373 6.95131 8.59875 8.082 7.48194C10.1146 5.63888 14.2881 5.88606 14.2881 5.88606ZM17.2382 18.0977C17.9369 17.9366 19.879 17.489 20.2378 14.6313C20.6487 11.3572 20.0864 9.12356 18.9836 8.18981C18.65 7.89081 17.2166 6.99981 14.2233 6.98762C14.2233 6.98762 10.6799 6.75875 8.95931 8.29969C8.00163 9.23344 7.67731 10.6218 7.64331 12.3153C7.64213 12.3736 7.64081 12.4336 7.63944 12.4954C7.6005 14.2288 7.53212 17.2759 10.5688 18.1068C10.5688 18.1068 10.5564 20.5113 10.5564 20.7218C10.5533 21.0423 10.7325 21.0575 10.8962 20.8958C11.3966 20.3984 13.003 18.4852 13.003 18.4852C15.1562 18.6225 16.8706 18.2014 17.056 18.1434C17.099 18.1298 17.1611 18.1154 17.2382 18.0977ZM15.5454 12.1841C15.5577 12.4465 15.9562 12.4282 15.9439 12.1658C15.9006 11.2901 15.4218 10.8018 14.5599 10.7561C14.2974 10.7408 14.2727 11.1344 14.5383 11.1497C15.1933 11.1863 15.5114 11.5128 15.5454 12.1841ZM14.2294 10.0909C15.7832 10.2037 16.6019 11.2168 16.571 12.5106C16.5648 12.7699 16.9664 12.7822 16.9695 12.5197C17.0035 11.0429 16.0489 9.82538 14.2572 9.69725C13.9946 9.67894 13.9668 10.0726 14.2294 10.0909ZM17.6244 12.9225C17.6244 13.1849 18.026 13.1819 18.0229 12.9195C18.0012 10.2404 16.1694 8.68719 13.8927 8.67194C13.6301 8.67194 13.6301 9.06256 13.8927 9.06556C15.9284 9.08081 17.6059 10.4356 17.6244 12.9225ZM17.6738 15.919V15.9129C17.8221 15.6321 17.7727 15.3667 17.5564 15.1928C17.1734 14.8358 16.5957 14.4421 16.1416 14.1889C15.8049 14.0027 15.462 14.1187 15.3199 14.3018L15.0233 14.6679C14.8719 14.8541 14.5908 14.8296 14.5908 14.8296C12.5366 14.3109 11.9867 12.2573 11.9867 12.2573C11.9867 12.2573 11.9619 11.9796 12.1504 11.8301L12.5211 11.5372C12.7064 11.3968 12.8238 11.0581 12.6354 10.7256C12.5273 10.5394 12.3203 10.2068 12.1659 9.99931C12.0021 9.77656 11.6191 9.32494 11.6191 9.32494C11.4368 9.10831 11.1649 9.0595 10.8807 9.20594H10.8746C10.2846 9.5355 9.63894 10.1519 9.84587 10.7866C9.84587 10.7866 9.99106 11.3114 10.6491 12.4862C10.9611 13.0476 11.2824 13.5145 11.6005 13.9081C11.9527 14.3506 12.4099 14.8113 12.9103 15.2019C13.8803 15.9648 15.4156 16.7459 16.0674 16.9259L16.0736 16.9351C16.7162 17.1395 17.3402 16.4988 17.6738 15.919Z" fill="white"/>
</svg>
