<svg width="40" height="40" viewBox="0 0 40 40" fill="none" xmlns="http://www.w3.org/2000/svg">
<path fill-rule="evenodd" clip-rule="evenodd" d="M20 33.75C27.5939 33.75 33.75 27.5939 33.75 20C33.75 12.4061 27.5939 6.25 20 6.25C12.4061 6.25 6.25 12.4061 6.25 20C6.25 27.5939 12.4061 33.75 20 33.75ZM20.2881 11.8861C23.8283 11.9013 25.4161 13.0395 25.8084 13.3965C27.1121 14.5163 27.8349 16.9941 27.3468 20.9181C26.9194 24.3789 24.4777 24.9929 23.6561 25.1995C23.5751 25.2199 23.5098 25.2363 23.4637 25.2511C23.2413 25.3212 21.2921 25.8034 18.7528 25.5928C18.4717 25.9133 18.101 26.3343 17.8322 26.6211C17.7508 26.7076 17.6746 26.7931 17.6017 26.8748C17.2349 27.2861 16.9533 27.6018 16.5255 27.4694C16.0992 27.3412 16.1239 26.7035 16.1239 26.7035L16.127 25.129H16.1239C12.4138 24.0976 12.4663 20.2956 12.5096 18.2665C12.5528 16.2373 12.9513 14.5988 14.082 13.4819C16.1146 11.6389 20.2881 11.8861 20.2881 11.8861ZM23.2382 24.0977C23.9369 23.9366 25.879 23.489 26.2378 20.6313C26.6487 17.3572 26.0864 15.1236 24.9836 14.1898C24.65 13.8908 23.2166 12.9998 20.2233 12.9876C20.2233 12.9876 16.6799 12.7587 14.9593 14.2997C14.0016 15.2334 13.6773 16.6218 13.6433 18.3153C13.6421 18.3736 13.6408 18.4336 13.6394 18.4954C13.6005 20.2288 13.5321 23.2759 16.5688 24.1068C16.5688 24.1068 16.5564 26.5113 16.5564 26.7218C16.5533 27.0423 16.7325 27.0575 16.8962 26.8958C17.3966 26.3984 19.003 24.4852 19.003 24.4852C21.1562 24.6225 22.8706 24.2014 23.056 24.1434C23.099 24.1298 23.1611 24.1154 23.2382 24.0977ZM21.5454 18.1841C21.5577 18.4465 21.9562 18.4282 21.9439 18.1658C21.9006 17.2901 21.4218 16.8018 20.5599 16.7561C20.2974 16.7408 20.2727 17.1344 20.5383 17.1497C21.1933 17.1863 21.5114 17.5128 21.5454 18.1841ZM20.2294 16.0909C21.7832 16.2037 22.6019 17.2168 22.571 18.5106C22.5648 18.7699 22.9664 18.7822 22.9695 18.5197C23.0035 17.0429 22.0489 15.8254 20.2572 15.6973C19.9946 15.6789 19.9668 16.0726 20.2294 16.0909ZM23.6244 18.9225C23.6244 19.1849 24.026 19.1819 24.0229 18.9195C24.0012 16.2404 22.1694 14.6872 19.8927 14.6719C19.6301 14.6719 19.6301 15.0626 19.8927 15.0656C21.9284 15.0808 23.6059 16.4356 23.6244 18.9225ZM23.6738 21.919V21.9129C23.8221 21.6321 23.7727 21.3667 23.5564 21.1928C23.1734 20.8358 22.5957 20.4421 22.1416 20.1889C21.8049 20.0027 21.462 20.1187 21.3199 20.3018L21.0233 20.6679C20.8719 20.8541 20.5908 20.8296 20.5908 20.8296C18.5366 20.3109 17.9867 18.2573 17.9867 18.2573C17.9867 18.2573 17.9619 17.9796 18.1504 17.8301L18.5211 17.5372C18.7064 17.3968 18.8238 17.0581 18.6354 16.7256C18.5273 16.5394 18.3203 16.2068 18.1659 15.9993C18.0021 15.7766 17.6191 15.3249 17.6191 15.3249C17.4368 15.1083 17.1649 15.0595 16.8807 15.2059H16.8746C16.2846 15.5355 15.6389 16.1519 15.8459 16.7866C15.8459 16.7866 15.9911 17.3114 16.6491 18.4862C16.9611 19.0476 17.2824 19.5145 17.6005 19.9081C17.9527 20.3506 18.4099 20.8113 18.9103 21.2019C19.8803 21.9648 21.4156 22.7459 22.0674 22.9259L22.0736 22.9351C22.7162 23.1395 23.3402 22.4988 23.6738 21.919Z" fill="white"/>
</svg>
