<svg width="40" height="40" viewBox="0 0 40 40" fill="none" xmlns="http://www.w3.org/2000/svg">
<path d="M19.9609 6.25C12.3888 6.25 6.25 12.3886 6.25 19.9609C6.25 27.5333 12.3888 33.6719 19.9609 33.6719C27.533 33.6719 33.6719 27.5333 33.6719 19.9609C33.6719 12.3886 27.533 6.25 19.9609 6.25ZM26.9159 21.4438C27.5549 22.068 28.231 22.6555 28.8047 23.3441C29.0588 23.6488 29.2984 23.9638 29.4808 24.3181C29.7411 24.8234 29.506 25.3774 29.0537 25.4074L26.2448 25.4069C25.5194 25.467 24.942 25.1743 24.4553 24.6784C24.0668 24.283 23.7063 23.8609 23.3321 23.4521C23.1792 23.2844 23.0181 23.1265 22.8263 23.0022C22.4434 22.753 22.1106 22.8294 21.8913 23.2294C21.6677 23.6365 21.6166 24.0876 21.5953 24.5406C21.5648 25.203 21.365 25.376 20.7004 25.4072C19.2804 25.4737 17.933 25.2582 16.6807 24.5423C15.5759 23.9108 14.7209 23.0195 13.9758 22.0105C12.5249 20.0434 11.4137 17.8845 10.4153 15.6635C10.1906 15.1633 10.355 14.8957 10.9068 14.8853C11.8236 14.8677 12.7404 14.8698 13.6571 14.8845C14.0302 14.8903 14.2771 15.1038 14.4205 15.4559C14.9159 16.6748 15.5232 17.8345 16.2843 18.9101C16.4871 19.1965 16.6941 19.4821 16.989 19.6843C17.3144 19.9077 17.5624 19.8338 17.7159 19.4705C17.8141 19.2397 17.8564 18.9928 17.8777 18.7454C17.9506 17.8979 17.9594 17.0507 17.8331 16.2066C17.7545 15.6784 17.4575 15.3373 16.9309 15.2373C16.6627 15.1866 16.702 15.0873 16.8324 14.9341C17.0588 14.6693 17.2709 14.5055 17.6948 14.5055L20.8684 14.5049C21.3687 14.603 21.4809 14.8275 21.5487 15.3313L21.5516 18.8582C21.5456 19.0531 21.6495 19.631 21.9995 19.7587C22.2801 19.8512 22.4652 19.6262 22.633 19.4487C23.3941 18.641 23.9363 17.6878 24.422 16.7012C24.6363 16.2661 24.8211 15.8158 25.0007 15.3647C25.1342 15.0312 25.3418 14.867 25.7183 14.8727L28.7744 14.8763C28.8645 14.8763 28.9559 14.8772 29.0451 14.8926C29.5602 14.9807 29.7012 15.2023 29.5419 15.7047C29.2911 16.4941 28.8038 17.1517 28.3275 17.8109C27.817 18.5168 27.2724 19.1979 26.7669 19.9068C26.3023 20.5548 26.3391 20.8811 26.9159 21.4438Z" fill="white"/>
</svg>
