<svg width="28" height="28" viewBox="0 0 28 28" fill="none" xmlns="http://www.w3.org/2000/svg">
<path d="M14 0.25C6.40632 0.25 0.25 6.40608 0.25 14C0.25 21.5939 6.40632 27.75 14 27.75C21.5937 27.75 27.75 21.5939 27.75 14C27.75 6.40608 21.5937 0.25 14 0.25ZM20.9747 15.4871C21.6156 16.113 22.2936 16.7022 22.8689 17.3928C23.1238 17.6984 23.3641 18.0143 23.547 18.3696C23.808 18.8763 23.5723 19.4319 23.1187 19.462L20.3018 19.4615C19.5743 19.5217 18.9953 19.2282 18.5072 18.7309C18.1176 18.3344 17.7561 17.911 17.3808 17.5011C17.2275 17.3329 17.0659 17.1746 16.8735 17.0499C16.4895 16.8001 16.1558 16.8766 15.9358 17.2777C15.7116 17.686 15.6604 18.1384 15.639 18.5927C15.6084 19.257 15.4081 19.4305 14.7416 19.4618C13.3175 19.5284 11.9663 19.3124 10.7104 18.5944C9.60251 17.9611 8.74507 17.0673 7.99779 16.0554C6.5428 14.0827 5.42846 11.9176 4.42718 9.69033C4.20185 9.18867 4.36669 8.92033 4.92006 8.90991C5.83947 8.89221 6.75888 8.8944 7.67821 8.90905C8.0524 8.91493 8.29998 9.12905 8.44375 9.48209C8.94055 10.7045 9.54962 11.8675 10.3129 12.9461C10.5163 13.2334 10.7239 13.5198 11.0196 13.7226C11.3459 13.9466 11.5947 13.8725 11.7485 13.5082C11.847 13.2767 11.8895 13.0291 11.9109 12.781C11.984 11.9311 11.9927 11.0815 11.8661 10.2349C11.7873 9.70522 11.4894 9.36315 10.9614 9.26295C10.6924 9.21202 10.7318 9.11244 10.8626 8.95888C11.0896 8.69328 11.3023 8.52899 11.7275 8.52899L14.9101 8.52844C15.4117 8.62684 15.5243 8.85194 15.5923 9.3572L15.5952 12.8941C15.5892 13.0896 15.6933 13.6691 16.0444 13.7972C16.3257 13.89 16.5114 13.6644 16.6796 13.4863C17.4429 12.6763 17.9867 11.7204 18.4737 10.7309C18.6886 10.2946 18.874 9.84303 19.0541 9.39066C19.188 9.05619 19.3962 8.89158 19.7737 8.89722L22.8385 8.90091C22.9289 8.90091 23.0205 8.90177 23.11 8.9172C23.6266 9.00558 23.7681 9.22777 23.6082 9.73162C23.3567 10.5233 22.8681 11.1828 22.3904 11.8439C21.8784 12.5517 21.3323 13.2348 20.8253 13.9457C20.3595 14.5956 20.3963 14.9228 20.9747 15.4871Z" fill="white"/>
</svg>
