<svg width="40" height="40" viewBox="0 0 40 40" fill="none" xmlns="http://www.w3.org/2000/svg">
<path fill-rule="evenodd" clip-rule="evenodd" d="M20 33.75C27.5939 33.75 33.75 27.5939 33.75 20C33.75 12.4061 27.5939 6.25 20 6.25C12.4061 6.25 6.25 12.4061 6.25 20C6.25 27.5939 12.4061 33.75 20 33.75ZM19.9969 12.8516C21.8169 12.8516 23.5296 13.5565 24.8156 14.8382C26.1016 16.12 26.875 17.8198 26.875 19.6295C26.875 23.3649 23.7506 26.4044 19.9969 26.4044H19.9939C18.8521 26.4044 17.7319 26.1206 16.7374 25.5804L13.125 26.5234L14.0918 23.0139C13.4964 21.9855 13.1833 20.8197 13.1833 19.6264C13.1833 15.8911 16.2402 12.8516 19.9969 12.8516ZM17.1119 24.4788C17.9804 24.9914 18.9779 25.2631 19.9969 25.2631C23.1183 25.2631 25.7241 22.7362 25.7241 19.6295C25.7271 18.125 25.0703 16.7121 24.0022 15.647C22.9341 14.5819 21.5131 13.996 20 13.996C16.8756 13.996 14.3342 16.5228 14.3342 19.6264C14.3342 20.6915 14.632 21.7261 15.1997 22.6233L15.3348 22.8369L14.7639 24.9152L16.9062 24.3567L17.1119 24.4788ZM21.9397 20.4962C22.0962 20.5511 22.9341 20.9601 23.1029 21.0456C23.1306 21.059 23.1567 21.0714 23.1814 21.0831C23.307 21.1428 23.3919 21.1831 23.4253 21.2469C23.4682 21.3171 23.4682 21.6559 23.327 22.0526C23.1858 22.4493 22.5076 22.8094 22.1791 22.8582C21.6389 22.9376 21.2154 22.8979 20.1351 22.4341C18.5431 21.7492 17.4675 20.2201 17.2576 19.9218C17.2421 19.8998 17.2314 19.8845 17.2254 19.8767C17.2233 19.8737 17.2208 19.8704 17.2179 19.8665C17.1113 19.7219 16.5318 18.9365 16.5318 18.125C16.5318 17.3467 16.9149 16.9386 17.0929 16.7489C17.1054 16.7356 17.1169 16.7232 17.1273 16.7121C17.2838 16.5442 17.4679 16.5014 17.5815 16.5014C17.6951 16.5014 17.8086 16.5014 17.9068 16.5076C17.9194 16.5083 17.9327 16.5083 17.9463 16.5083C18.0454 16.5081 18.1691 16.5079 18.2904 16.7975C18.3322 16.8976 18.3912 17.0407 18.455 17.1951C18.6069 17.5632 18.785 17.9946 18.8153 18.0548C18.8582 18.1402 18.8859 18.2379 18.8306 18.3508C18.6859 18.6386 18.5364 18.7941 18.4303 18.9044C18.2979 19.0422 18.2332 19.1094 18.3304 19.2755C18.9902 20.4016 19.6471 20.7922 20.6476 21.2897C20.8164 21.3751 20.9177 21.3599 21.0159 21.2469C21.1172 21.131 21.4425 20.7526 21.5561 20.5817C21.6696 20.4107 21.7832 20.4382 21.9397 20.4962Z" fill="white"/>
</svg>
