<svg width="28" height="28" viewBox="0 0 28 28" fill="none" xmlns="http://www.w3.org/2000/svg">
<path fill-rule="evenodd" clip-rule="evenodd" d="M14 27.75C21.5939 27.75 27.75 21.5939 27.75 14C27.75 6.40606 21.5939 0.25 14 0.25C6.40606 0.25 0.25 6.40606 0.25 14C0.25 21.5939 6.40606 27.75 14 27.75ZM13.9969 6.85156C15.8169 6.85156 17.5296 7.5565 18.8156 8.83825C20.1016 10.12 20.875 11.8198 20.875 13.6295C20.875 17.3649 17.7506 20.4044 13.9969 20.4044H13.9939C12.8521 20.4044 11.7319 20.1206 10.7374 19.5804L7.125 20.5234L8.09181 17.0139C7.49638 15.9855 7.18331 14.8197 7.18331 13.6264C7.18331 9.89112 10.2402 6.85156 13.9969 6.85156ZM11.1119 18.4788C11.9804 18.9914 12.9779 19.2631 13.9969 19.2631C17.1183 19.2631 19.7241 16.7362 19.7241 13.6295C19.7271 12.125 19.0703 10.7121 18.0022 9.647C16.9341 8.58194 15.5131 7.996 14 7.996C10.8756 7.996 8.33425 10.5228 8.33425 13.6264C8.33425 14.6915 8.632 15.7261 9.19975 16.6233L9.33481 16.8369L8.76394 18.9152L10.9062 18.3567L11.1119 18.4788ZM15.9397 14.4962C16.0962 14.5511 16.9341 14.9601 17.1029 15.0456C17.1306 15.059 17.1567 15.0714 17.1814 15.0831C17.307 15.1428 17.3919 15.1831 17.4253 15.2469C17.4682 15.3171 17.4682 15.6559 17.327 16.0526C17.1858 16.4493 16.5076 16.8094 16.1791 16.8582C15.6389 16.9376 15.2154 16.8979 14.1351 16.4341C12.5431 15.7492 11.4675 14.2201 11.2576 13.9218C11.2421 13.8998 11.2314 13.8845 11.2254 13.8767C11.2233 13.8737 11.2208 13.8704 11.2179 13.8665C11.1113 13.7219 10.5318 12.9365 10.5318 12.125C10.5318 11.3467 10.9149 10.9386 11.0929 10.7489C11.1054 10.7356 11.1169 10.7232 11.1273 10.7121C11.2838 10.5442 11.4679 10.5014 11.5815 10.5014C11.6951 10.5014 11.8086 10.5014 11.9068 10.5076C11.9194 10.5083 11.9327 10.5083 11.9463 10.5083C12.0454 10.5081 12.1691 10.5079 12.2904 10.7975C12.3322 10.8976 12.3912 11.0407 12.455 11.1951C12.6069 11.5632 12.785 11.9946 12.8153 12.0548C12.8582 12.1402 12.8859 12.2379 12.8306 12.3508C12.6859 12.6386 12.5364 12.7941 12.4303 12.9044C12.2979 13.0422 12.2332 13.1094 12.3304 13.2755C12.9902 14.4016 13.6471 14.7922 14.6476 15.2897C14.8164 15.3751 14.9177 15.3599 15.0159 15.2469C15.1172 15.131 15.4425 14.7526 15.5561 14.5817C15.6696 14.4107 15.7832 14.4382 15.9397 14.4962Z" fill="white"/>
</svg>
